STARTFONT 2.1
FONT -FontForge-Lilita One-Book-R-Normal--31-300-75-75-P-165-ISO10646-1
SIZE 30 75 75
FONTBOUNDINGBOX 34 36 -4 -7
COMMENT "Generated by fontforge, http://fontforge.sourceforge.net"
COMMENT "Copyright (c) 2011 Juan Montoreano (juan@remolacha.biz), with Reserved Font Names "Lilita One""
STARTPROPERTIES 39
FOUNDRY "FontForge"
FAMILY_NAME "Lilita One"
WEIGHT_NAME "Book"
SLANT "R"
SETWIDTH_NAME "Normal"
ADD_STYLE_NAME ""
PIXEL_SIZE 31
POINT_SIZE 300
RESOLUTION_X 75
RESOLUTION_Y 75
SPACING "P"
AVERAGE_WIDTH 165
CHARSET_REGISTRY "ISO10646"
CHARSET_ENCODING "1"
FONTNAME_REGISTRY ""
CHARSET_COLLECTIONS "ISO10646-1"
FONT_NAME "LilitaOne"
FACE_NAME "Lilita One"
COPYRIGHT "Copyright (c) 2011 Juan Montoreano (juan@remolacha.biz), with Reserved Font Names "Lilita One""
FONT_VERSION "1.002"
FONT_ASCENT 25
FONT_DESCENT 6
UNDERLINE_POSITION -3
UNDERLINE_THICKNESS 2
X_HEIGHT 15
CAP_HEIGHT 21
RAW_ASCENT 800
RAW_DESCENT 200
NORM_SPACE 6
RELATIVE_WEIGHT 40
RELATIVE_SETWIDTH 50
SUPERSCRIPT_X 0
SUPERSCRIPT_Y 14
SUPERSCRIPT_SIZE 20
SUBSCRIPT_X 0
SUBSCRIPT_Y 4
SUBSCRIPT_SIZE 20
AVG_LOWERCASE_WIDTH 153
AVG_UPPERCASE_WIDTH 187
ENDPROPERTIES
CHARS 228
STARTCHAR space
ENCODING 32
SWIDTH 188 0
DWIDTH 6 0
BBX 1 1 0 0
BITMAP
00
ENDCHAR
STARTCHAR exclam
ENCODING 33
SWIDTH 287 0
DWIDTH 9 0
BBX 6 22 1 0
BITMAP
FC
7C
7C
7C
7C
7C
7C
7C
7C
7C
7C
7C
7C
7C
7C
78
00
FC
FC
FC
FC
FC
ENDCHAR
STARTCHAR quotedbl
ENCODING 34
SWIDTH 460 0
DWIDTH 14 0
BBX 10 8 2 13
BITMAP
F3C0
F3C0
F3C0
F3C0
73C0
73C0
7380
7380
ENDCHAR
STARTCHAR numbersign
ENCODING 35
SWIDTH 833 0
DWIDTH 26 0
BBX 21 21 3 0
BITMAP
00E1C0
00F1E0
01E1E0
01E3C0
01E3C0
7FFFF8
7FFFF8
7FFFF8
3F8780
070700
070F00
0F0F00
FFFFF0
FFFFF0
FFFFF0
1E3C00
1C3C00
3C3C00
3C7800
387800
383800
ENDCHAR
STARTCHAR dollar
ENCODING 36
SWIDTH 531 0
DWIDTH 16 0
BBX 15 28 1 -3
BITMAP
0100
0100
0100
07F0
1FFC
3FFC
7FFC
FFFC
FD38
F900
F900
FD00
FFF0
7FF8
3FFC
1FFE
03FE
011E
413E
713E
FFFE
FFFC
FFFC
7FF8
3FE0
0100
0100
0100
ENDCHAR
STARTCHAR uni0025
ENCODING 37
SWIDTH 798 0
DWIDTH 25 0
BBX 22 22 1 0
BITMAP
1E0060
7F00F0
7F81F0
FF83E0
F383C0
E3C780
E3CF80
F39F00
FF9E00
7FBE00
7F7C60
1EFBF8
00F3F8
01F7FC
03E7BC
03C71C
07871C
0F871C
1F07FC
1E07FC
3C03F8
1C01F0
ENDCHAR
STARTCHAR ampersand
ENCODING 38
SWIDTH 667 0
DWIDTH 21 0
BBX 18 22 1 0
BITMAP
07E000
1FF800
3FFC00
3FFE00
7FFE00
7E7E00
7C3C00
7C0000
7E01C0
3FFFC0
3FFFC0
1FFFC0
3FFFC0
7CBE00
7C3E00
FC3E00
FE3E00
7FFE00
7FFE00
7FFE00
3FFC00
0FF000
ENDCHAR
STARTCHAR quotesingle
ENCODING 39
SWIDTH 301 0
DWIDTH 9 0
BBX 5 8 2 13
BITMAP
F8
F8
F8
F8
78
70
70
70
ENDCHAR
STARTCHAR parenleft
ENCODING 40
SWIDTH 430 0
DWIDTH 13 0
BBX 8 24 3 -2
BITMAP
08
1F
3E
3E
7C
7C
7C
F8
F8
F8
F8
F8
F8
F8
F8
F8
F8
78
7C
7C
3C
3E
3F
1E
ENDCHAR
STARTCHAR parenright
ENCODING 41
SWIDTH 422 0
DWIDTH 13 0
BBX 8 24 3 -2
BITMAP
10
F8
F8
7C
7C
3E
3E
3E
1E
1E
1F
1F
1F
1F
1F
1E
3E
3E
3E
3C
7C
7C
F8
78
ENDCHAR
STARTCHAR asterisk
ENCODING 42
SWIDTH 557 0
DWIDTH 17 0
BBX 12 13 3 9
BITMAP
0400
0E00
0E00
0E00
CE30
FFF0
FFF0
0F00
1F80
3B80
39C0
79C0
1080
ENDCHAR
STARTCHAR plus
ENCODING 43
SWIDTH 602 0
DWIDTH 19 0
BBX 16 16 1 3
BITMAP
0180
03C0
03C0
03C0
03C0
03C0
7FFE
FFFF
FFFF
FFFF
03C0
03C0
03C0
03C0
03C0
03C0
ENDCHAR
STARTCHAR comma
ENCODING 44
SWIDTH 305 0
DWIDTH 9 0
BBX 7 8 2 -3
BITMAP
3E
3E
3E
7E
7C
FC
F8
F8
ENDCHAR
STARTCHAR hyphen
ENCODING 45
SWIDTH 525 0
DWIDTH 16 0
BBX 14 3 1 6
BITMAP
FFFC
FFFC
FFFC
ENDCHAR
STARTCHAR period
ENCODING 46
SWIDTH 229 0
DWIDTH 7 0
BBX 5 6 1 0
BITMAP
F8
F8
F8
F8
F8
F8
ENDCHAR
STARTCHAR slash
ENCODING 47
SWIDTH 573 0
DWIDTH 18 0
BBX 18 27 0 -3
BITMAP
000380
0003C0
000780
000780
000F00
001F00
001E00
003C00
003C00
007800
00F800
00F000
01F000
01E000
03C000
03C000
078000
0F8000
0F0000
1E0000
1E0000
3C0000
3C0000
780000
F80000
F00000
600000
ENDCHAR
STARTCHAR zero
ENCODING 48
SWIDTH 639 0
DWIDTH 20 0
BBX 18 22 1 0
BITMAP
03F000
0FFC00
1FFE00
3FFF00
7FFF00
7FFF80
7F3F80
FE1F80
FC1FC0
FC0FC0
FC0FC0
FC0FC0
FC0FC0
FC1FC0
FE1F80
7E1F80
7FFF80
7FFF80
3FFF00
1FFE00
0FFC00
07F800
ENDCHAR
STARTCHAR one
ENCODING 49
SWIDTH 406 0
DWIDTH 13 0
BBX 11 22 0 0
BITMAP
7FE0
7FE0
FFE0
FFE0
7FE0
7FE0
07E0
07E0
07E0
07E0
07E0
07E0
07E0
07E0
07E0
07E0
07E0
07E0
07E0
07E0
07E0
07E0
ENDCHAR
STARTCHAR two
ENCODING 50
SWIDTH 525 0
DWIDTH 16 0
BBX 14 22 1 0
BITMAP
1FE0
7FF0
FFF8
FFFC
7FFC
7FFC
21FC
00FC
01FC
01F8
03F8
03F0
07F0
0FE0
1FC0
3F80
7FFC
7FFC
FFFC
7FFC
7FFC
7FFC
ENDCHAR
STARTCHAR three
ENCODING 51
SWIDTH 528 0
DWIDTH 16 0
BBX 14 22 1 0
BITMAP
1FC0
7FF0
FFF8
FFF8
7FF8
7FF8
41F8
01F8
03F0
1FE0
1FE0
1FF0
1FF8
03FC
00FC
00FC
73FC
FFFC
FFFC
FFF8
FFF0
7FE0
ENDCHAR
STARTCHAR four
ENCODING 52
SWIDTH 598 0
DWIDTH 19 0
BBX 17 22 0 0
BITMAP
00FE00
01FE00
03FE00
03FE00
07FE00
07FE00
0FFE00
1FFE00
1F7E00
3F7E00
3E7E00
7E7E00
7C7E00
FFFF80
7FFF80
7FFF80
3FFF80
3FFE00
007E00
007E00
007E00
007E00
ENDCHAR
STARTCHAR five
ENCODING 53
SWIDTH 524 0
DWIDTH 16 0
BBX 14 22 1 0
BITMAP
3FF8
7FF8
7FF8
7FF8
7FF8
7FF8
7C00
7C00
7F80
7FF0
7FF0
7FF8
03F8
01FC
00FC
01FC
41FC
7FF8
FFF8
FFF0
FFE0
7FC0
ENDCHAR
STARTCHAR six
ENCODING 54
SWIDTH 575 0
DWIDTH 18 0
BBX 16 22 1 0
BITMAP
03F8
0FFC
1FFC
3FFC
3FF8
7FF8
7E00
7E00
FC00
FFF8
FFFC
FFFE
FFFE
FC3E
FC3F
FC3F
7E3E
7FFE
7FFE
3FFC
1FF8
0FF0
ENDCHAR
STARTCHAR seven
ENCODING 55
SWIDTH 500 0
DWIDTH 16 0
BBX 14 22 1 0
BITMAP
7FF0
FFF8
FFFC
FFFC
FFFC
FFF8
01F8
01F8
03F8
03F0
03F0
07F0
07E0
07E0
0FE0
0FC0
0FC0
1FC0
1FC0
3F80
3F80
3F80
ENDCHAR
STARTCHAR eight
ENCODING 56
SWIDTH 570 0
DWIDTH 18 0
BBX 16 22 1 0
BITMAP
07E0
1FF8
3FFC
7FFC
7FFE
7C7E
7C7E
7E7C
7F7C
3FF8
1FFC
3FFC
7EFE
FC7E
FC3F
FC3F
FC7F
FFFE
FFFE
7FFC
3FF8
1FF0
ENDCHAR
STARTCHAR nine
ENCODING 57
SWIDTH 565 0
DWIDTH 18 0
BBX 15 22 1 0
BITMAP
07E0
1FF0
3FF8
7FFC
7FFE
FFFE
FC7E
FC7E
FC3E
FC3E
7FFE
7FFE
3FFE
1FFE
007E
007E
00FC
3FFC
3FFC
3FF8
3FF0
3FE0
ENDCHAR
STARTCHAR colon
ENCODING 58
SWIDTH 277 0
DWIDTH 9 0
BBX 6 16 2 0
BITMAP
7C
FC
FC
FC
FC
FC
00
00
00
00
FC
FC
FC
FC
FC
FC
ENDCHAR
STARTCHAR semicolon
ENCODING 59
SWIDTH 277 0
DWIDTH 9 0
BBX 8 19 0 -3
BITMAP
1F
3F
3F
3F
3F
3F
00
00
00
00
00
3E
3F
3F
3E
3E
7E
7C
FC
ENDCHAR
STARTCHAR less
ENCODING 60
SWIDTH 484 0
DWIDTH 15 0
BBX 10 19 2 1
BITMAP
0180
03C0
07C0
0780
0F00
1E00
3E00
7C00
F800
F000
F800
7C00
3E00
1E00
0F00
0780
03C0
03C0
0100
ENDCHAR
STARTCHAR equal
ENCODING 61
SWIDTH 580 0
DWIDTH 18 0
BBX 14 11 2 5
BITMAP
7FF8
FFFC
FFFC
FFFC
0000
0000
0000
7FF8
FFFC
FFFC
FFFC
ENDCHAR
STARTCHAR greater
ENCODING 62
SWIDTH 450 0
DWIDTH 14 0
BBX 10 19 2 1
BITMAP
6000
F000
F000
7800
3C00
3E00
1F00
0F80
07C0
03C0
07C0
0F80
1F00
3E00
7C00
F800
F000
E000
2000
ENDCHAR
STARTCHAR question
ENCODING 63
SWIDTH 584 0
DWIDTH 18 0
BBX 14 22 2 0
BITMAP
1FC0
7FF0
FFF8
FFF8
FFFC
73FC
01FC
01F8
01F8
03F0
07E0
0FC0
1F80
1F80
1F00
1F00
0000
1F00
1F00
1F00
1F00
1F00
ENDCHAR
STARTCHAR at
ENCODING 64
SWIDTH 867 0
DWIDTH 27 0
BBX 23 24 1 -3
BITMAP
003F00
01FFE0
07FFF0
0FE3F8
1F007C
3E063E
3C3F9E
787F9E
78FF8E
71F78E
F1E78E
F3E70E
F3CF1E
F3CF1E
F3FFFC
F3FFFC
71FFF8
78F0E0
7C0000
3E0000
1FFF80
0FFFC0
03FFC0
007C00
ENDCHAR
STARTCHAR A
ENCODING 65
SWIDTH 655 0
DWIDTH 20 0
BBX 20 22 0 0
BITMAP
01F800
03FE00
07FE00
07FE00
07FE00
07FF00
0FFF00
0FFF00
0FBF00
0FBF80
1F9F80
1F9F80
1F1F80
1FFFC0
3FFFC0
3FFFC0
3FFFE0
3E0FE0
7E07E0
7E07E0
7C07F0
FC07F0
ENDCHAR
STARTCHAR B
ENCODING 66
SWIDTH 594 0
DWIDTH 18 0
BBX 16 22 2 0
BITMAP
FF80
FFF8
FFFC
FFFC
FFFE
FCFE
FC7E
FC7E
FC7C
FFFC
FFF0
FFF8
FFFC
FCFE
FC7E
FC7E
FCFF
FFFE
FFFE
FFFE
FFFC
FFF0
ENDCHAR
STARTCHAR C
ENCODING 67
SWIDTH 561 0
DWIDTH 17 0
BBX 16 22 1 0
BITMAP
03F8
0FFE
1FFE
3FFE
3FFE
7FFC
7F08
FE00
FE00
FC00
FC00
FC00
FC00
FE00
FE00
FF04
7FFC
7FFE
3FFE
1FFF
0FFE
07FC
ENDCHAR
STARTCHAR D
ENCODING 68
SWIDTH 616 0
DWIDTH 19 0
BBX 16 22 2 0
BITMAP
FF80
FFF0
FFF8
FFFC
FFFE
FFFE
FCFF
FC7F
FC7F
FC3F
FC3F
FC3F
FC3F
FC7F
FC7F
FCFF
FFFE
FFFE
FFFC
FFF8
FFF0
FFC0
ENDCHAR
STARTCHAR E
ENCODING 69
SWIDTH 493 0
DWIDTH 15 0
BBX 12 22 2 0
BITMAP
FFF0
FFF0
FFF0
FFF0
FFF0
FFF0
FC00
FC00
FC00
FFC0
FFC0
FFC0
FFC0
FFC0
FC00
FC00
FC00
FFF0
FFF0
FFF0
FFF0
FFF0
ENDCHAR
STARTCHAR F
ENCODING 70
SWIDTH 472 0
DWIDTH 15 0
BBX 13 22 1 0
BITMAP
7FF0
FFF8
FFF8
FFF8
FFF8
FFF0
FC00
FC00
FC00
FFC0
FFE0
FFE0
FFE0
FFE0
FC00
FC00
FC00
FC00
FC00
FC00
FC00
FC00
ENDCHAR
STARTCHAR G
ENCODING 71
SWIDTH 621 0
DWIDTH 19 0
BBX 17 22 1 0
BITMAP
01FC00
0FFF00
1FFF00
3FFF00
3FFF00
7FFF00
7F0600
FE0000
FE0000
FC0000
FC0000
FC0F80
FC0F80
FE0F80
FE0F80
7F0F80
7FFF80
7FFF80
3FFF80
1FFF80
0FFF80
03FF00
ENDCHAR
STARTCHAR H
ENCODING 72
SWIDTH 644 0
DWIDTH 20 0
BBX 16 22 2 0
BITMAP
F81F
FC3F
FC3F
FC3F
FC3F
FC3F
FC3F
FC3F
FFFF
FFFF
FFFF
FFFF
FFFF
FFFF
FC3F
FC3F
FC3F
FC3F
FC3F
FC3F
FC3F
FC3F
ENDCHAR
STARTCHAR I
ENCODING 73
SWIDTH 429 0
DWIDTH 13 0
BBX 12 22 1 0
BITMAP
FFE0
FFF0
FFF0
FFF0
FFF0
FFE0
1F80
1F80
1F80
1F80
1F80
1F80
1F80
1F80
1F80
1F80
1F80
FFF0
FFF0
FFF0
FFF0
FFE0
ENDCHAR
STARTCHAR J
ENCODING 74
SWIDTH 462 0
DWIDTH 14 0
BBX 13 22 0 0
BITMAP
0FF0
0FF8
0FF8
0FF8
0FF8
0FF8
01F8
01F8
01F8
01F8
01F8
01F8
01F8
01F8
01F8
43F8
7FF8
7FF8
FFF8
FFF0
7FE0
3FC0
ENDCHAR
STARTCHAR K
ENCODING 75
SWIDTH 620 0
DWIDTH 19 0
BBX 17 22 2 0
BITMAP
F81E00
FC7F00
FC7F00
FCFE00
FCFC00
FDFC00
FDF800
FFF800
FFF000
FFF000
FFE000
FFE000
FFF000
FFF800
FFFC00
FDFC00
FDFE00
FCFF00
FC7F00
FC7F80
FC3F00
FC3C00
ENDCHAR
STARTCHAR L
ENCODING 76
SWIDTH 435 0
DWIDTH 13 0
BBX 12 22 1 0
BITMAP
7C00
FE00
FE00
FE00
FE00
FE00
FE00
FE00
FE00
FE00
FE00
FE00
FE00
FE00
FE00
FE00
FFF0
FFF0
FFF0
FFF0
FFF0
7FF0
ENDCHAR
STARTCHAR M
ENCODING 77
SWIDTH 907 0
DWIDTH 28 0
BBX 25 22 2 0
BITMAP
7E00FE00
FF81FF00
FF81FF00
FF83FF00
FFC3FF00
FFC3FF00
FFC7FF00
FFE7FF00
FFE7FF00
FFFFFF00
FFFFBF00
FDFFBF00
FDFFBF00
FDFFBF00
FCFF3F00
FCFF3F00
FCFF3F00
FC7E3F00
FC7E3F00
FC7E3F80
FC3C3F80
F83C1F00
ENDCHAR
STARTCHAR N
ENCODING 78
SWIDTH 648 0
DWIDTH 20 0
BBX 17 22 2 0
BITMAP
781F00
FC1F80
FE1F80
FE1F80
FF1F80
FF1F80
FF9F80
FF9F80
FFDF80
FFDF80
FFFF80
FFFF80
FBFF80
FBFF80
F9FF80
F9FF80
F8FF80
F8FF80
F87F80
F87F80
F83F80
F83F00
ENDCHAR
STARTCHAR O
ENCODING 79
SWIDTH 696 0
DWIDTH 22 0
BBX 20 22 1 0
BITMAP
01F800
0FFE00
1FFF80
3FFFC0
7FFFC0
7FFFE0
7F1FE0
FE0FE0
FE07E0
FC07F0
FC07F0
FC07F0
FC07F0
FE07F0
FE07E0
FF0FE0
7FFFE0
7FFFC0
3FFFC0
1FFF80
0FFF00
03FC00
ENDCHAR
STARTCHAR P
ENCODING 80
SWIDTH 570 0
DWIDTH 18 0
BBX 15 22 1 0
BITMAP
7FC0
FFF8
FFFC
FFFC
FFFE
FFFE
FC7E
FC7E
FC7E
FC7E
FDFE
FFFE
FFFC
FFF8
FFF0
FFC0
FC00
FC00
FC00
FC00
FC00
7C00
ENDCHAR
STARTCHAR Q
ENCODING 81
SWIDTH 706 0
DWIDTH 22 0
BBX 20 28 1 -6
BITMAP
01F800
0FFE00
1FFF80
3FFFC0
7FFFC0
7FFFE0
7F1FE0
FE0FE0
FE07E0
FC07F0
FC07F0
FC07F0
FC07F0
FE07E0
FE07E0
FF0FE0
7FFFE0
7FFFC0
3FFFC0
1FFF80
0FFF00
07FC00
00FC00
007F00
003F80
001F00
000E00
000400
ENDCHAR
STARTCHAR R
ENCODING 82
SWIDTH 590 0
DWIDTH 18 0
BBX 16 22 2 0
BITMAP
FF00
FFF0
FFF8
FFFC
FFFC
FFFE
F8FE
F87E
F87E
F8FC
FFFC
FFF8
FFF0
FFF0
FFF8
F9FC
F9FC
F8FE
F8FE
F87F
F87E
F878
ENDCHAR
STARTCHAR S
ENCODING 83
SWIDTH 531 0
DWIDTH 16 0
BBX 14 22 1 0
BITMAP
07F0
1FFC
3FFC
7FFC
7FF8
FFF8
FE08
FF00
7FC0
7FE0
7FF8
3FFC
1FFC
07FC
41FC
61FC
FFFC
FFFC
FFFC
FFF8
7FF0
3FE0
ENDCHAR
STARTCHAR T
ENCODING 84
SWIDTH 502 0
DWIDTH 16 0
BBX 15 22 0 0
BITMAP
7FFE
FFFE
FFFE
FFFE
FFFE
7FFE
07E0
07E0
07E0
07E0
07E0
07E0
07E0
07E0
07E0
07E0
07E0
07E0
07E0
07E0
07E0
07E0
ENDCHAR
STARTCHAR U
ENCODING 85
SWIDTH 628 0
DWIDTH 19 0
BBX 17 22 1 0
BITMAP
7C1F80
FE1F80
FE1F80
FE1F80
FE1F80
FE1F80
FE1F80
FE1F80
FE1F80
FE1F80
FE1F80
FE1F80
FE1F80
FE1F80
FE1F80
FE1F80
FFFF80
FFFF80
7FFF80
3FFF00
1FFE00
0FF800
ENDCHAR
STARTCHAR V
ENCODING 86
SWIDTH 661 0
DWIDTH 20 0
BBX 20 22 0 0
BITMAP
FE03E0
7F07F0
7F0FF0
7F0FE0
7F0FE0
3F0FE0
3F8FE0
3F8FC0
3F9FC0
1F9FC0
1F9FC0
1FDF80
1FDF80
0FFF80
0FFF00
0FFF00
0FFF00
07FF00
07FE00
07FE00
03FE00
03FC00
ENDCHAR
STARTCHAR W
ENCODING 87
SWIDTH 953 0
DWIDTH 30 0
BBX 28 22 1 0
BITMAP
7C1E03E0
FE1F07F0
FE1F87F0
FE1F87E0
FE3F87E0
FE3F8FE0
7E3F8FE0
7E3FCFE0
7E7FCFC0
7E7FCFC0
7F7FCFC0
7F7FEFC0
7FFFFFC0
3FFBFFC0
3FFBFF80
3FFBFF80
3FFBFF80
3FF1FF80
3FF1FF80
1FF1FF00
1FE1FF00
1FE0FF00
ENDCHAR
STARTCHAR X
ENCODING 88
SWIDTH 683 0
DWIDTH 21 0
BBX 20 22 1 0
BITMAP
FC07E0
FF0FE0
FF1FE0
7F1FC0
7F9FC0
3FBF80
3FFF80
1FFF00
1FFF00
0FFE00
0FFE00
0FFC00
0FFE00
1FFE00
1FFF00
3FFF00
3FBF80
3F3F80
7F1FC0
7F1FE0
FE1FE0
FE0FF0
ENDCHAR
STARTCHAR Y
ENCODING 89
SWIDTH 615 0
DWIDTH 19 0
BBX 20 22 0 0
BITMAP
FC03F0
FF0FE0
7F0FE0
7F1FC0
3F9FC0
3F9F80
1FBF80
1FFF00
0FFF00
0FFE00
07FE00
07FC00
03FC00
03F800
03F800
03F800
03F800
03F800
03F800
03F800
03F800
01F800
ENDCHAR
STARTCHAR Z
ENCODING 90
SWIDTH 563 0
DWIDTH 17 0
BBX 16 22 1 0
BITMAP
7FFC
7FFE
7FFE
7FFE
7FFF
7FFE
01FE
01FC
03F8
07F8
07F0
0FE0
1FE0
1FC0
3F80
7F80
7FFE
FFFE
FFFE
7FFE
7FFE
7FFE
ENDCHAR
STARTCHAR bracketleft
ENCODING 91
SWIDTH 385 0
DWIDTH 12 0
BBX 9 29 2 -4
BITMAP
7F80
FF80
FF80
FF80
F000
F000
F000
F000
F000
F000
F000
F000
F000
F000
F000
F000
F000
F000
F000
F000
F000
F000
F000
F000
F000
FF80
FF80
FF80
7F00
ENDCHAR
STARTCHAR backslash
ENCODING 92
SWIDTH 587 0
DWIDTH 18 0
BBX 17 27 1 -3
BITMAP
E00000
F00000
F00000
780000
780000
3C0000
3C0000
1E0000
1F0000
0F0000
078000
078000
03C000
03E000
01E000
00F000
00F000
007800
007800
003C00
003E00
001E00
000F00
000F00
000780
000780
000380
ENDCHAR
STARTCHAR bracketright
ENCODING 93
SWIDTH 385 0
DWIDTH 12 0
BBX 8 29 1 -4
BITMAP
FF
FF
FF
FF
07
07
07
07
07
07
07
07
07
07
07
07
07
07
07
07
07
07
07
07
07
FF
FF
FF
7F
ENDCHAR
STARTCHAR asciicircum
ENCODING 94
SWIDTH 687 0
DWIDTH 21 0
BBX 19 10 1 11
BITMAP
00E000
01F000
03F800
07FC00
0FBE00
3F1F80
7E0FC0
FC03E0
7001E0
6000C0
ENDCHAR
STARTCHAR underscore
ENCODING 95
SWIDTH 636 0
DWIDTH 20 0
BBX 17 4 1 -5
BITMAP
7FFF80
FFFF80
7FFF80
7FFF00
ENDCHAR
STARTCHAR grave
ENCODING 96
SWIDTH 350 0
DWIDTH 11 0
BBX 7 6 2 16
BITMAP
60
F8
FC
7E
1E
04
ENDCHAR
STARTCHAR a
ENCODING 97
SWIDTH 517 0
DWIDTH 16 0
BBX 16 16 0 0
BITMAP
0FC0
1FF0
3FF8
1FF8
18F8
00F8
1FF8
3FF8
7FF8
7CF8
FCF8
FCFE
7FFF
7FFF
3FFE
1F9E
ENDCHAR
STARTCHAR b
ENCODING 98
SWIDTH 520 0
DWIDTH 16 0
BBX 13 22 2 0
BITMAP
F800
F800
F800
F800
F800
F800
FF80
FFE0
FFF0
FFF8
FFF8
F9F8
F9F8
F8F8
F8F8
F8F8
F9F8
FFF8
FFF0
FFF0
FFE0
7F80
ENDCHAR
STARTCHAR c
ENCODING 99
SWIDTH 424 0
DWIDTH 13 0
BBX 12 16 1 0
BITMAP
0780
1FE0
3FF0
7FF0
FFF0
FCE0
FC40
FC00
F800
FC00
FC00
FFE0
7FE0
7FE0
3FE0
1FE0
ENDCHAR
STARTCHAR d
ENCODING 100
SWIDTH 565 0
DWIDTH 18 0
BBX 16 22 1 0
BITMAP
00FC
00FC
00FC
00FC
00FC
00FC
0FFC
1FFC
3FFC
7FFC
FFFC
FCFC
FCFC
FCFC
F8FC
FCFC
FCFC
FFFF
7FFF
7FFF
3FFF
1F9E
ENDCHAR
STARTCHAR e
ENCODING 101
SWIDTH 486 0
DWIDTH 15 0
BBX 13 16 1 0
BITMAP
0780
1FE0
3FF0
7FF8
7FF8
FCF8
FCF8
FFF8
FFF8
FFF0
FFC0
FC10
7FF0
7FF8
3FF8
0FE0
ENDCHAR
STARTCHAR f
ENCODING 102
SWIDTH 375 0
DWIDTH 12 0
BBX 11 22 1 0
BITMAP
0FC0
1FE0
3FE0
3FE0
3E40
3E00
FF80
FFC0
FFC0
FFC0
FF80
3E00
3E00
3E00
3E00
3E00
3E00
3E00
3E00
3E00
3E00
3E00
ENDCHAR
STARTCHAR g
ENCODING 103
SWIDTH 516 0
DWIDTH 16 0
BBX 14 22 1 -6
BITMAP
07C0
1FF8
3FFC
7FFC
FFFC
FEFC
FCFC
FCFC
F8FC
FCFC
FCFC
FFFC
FFFC
7FFC
3FFC
1FFC
00FC
30FC
3FF8
7FF8
3FF0
1FC0
ENDCHAR
STARTCHAR h
ENCODING 104
SWIDTH 501 0
DWIDTH 16 0
BBX 13 22 1 0
BITMAP
FC00
FC00
FC00
FC00
FC00
FC00
FFC0
FFF0
FFF8
FFF8
FFF8
FCF8
FCF8
FCF8
FCF8
FCF8
FCF8
FCF8
FCF8
FCF8
FCF8
FCF8
ENDCHAR
STARTCHAR i
ENCODING 105
SWIDTH 273 0
DWIDTH 8 0
BBX 6 22 1 0
BITMAP
FC
FC
FC
FC
FC
00
38
FC
FC
FC
FC
FC
FC
FC
FC
FC
FC
FC
FC
FC
FC
FC
ENDCHAR
STARTCHAR j
ENCODING 106
SWIDTH 271 0
DWIDTH 8 0
BBX 11 28 -4 -6
BITMAP
07E0
07E0
07E0
07E0
07E0
0000
01A0
07E0
07E0
07E0
07E0
07E0
07E0
07E0
07E0
07E0
07E0
07E0
07E0
07E0
07E0
07E0
07E0
0FE0
FFE0
FFC0
7F80
7F00
ENDCHAR
STARTCHAR k
ENCODING 107
SWIDTH 531 0
DWIDTH 16 0
BBX 15 22 1 0
BITMAP
FC00
FC00
FC00
FC00
FC00
FC00
FC3C
FCFC
FCF8
FDF8
FDF0
FFF0
FFE0
FFE0
FFE0
FFF0
FDF0
FDF8
FDFC
FCFC
FCFE
FC7E
ENDCHAR
STARTCHAR l
ENCODING 108
SWIDTH 272 0
DWIDTH 8 0
BBX 6 22 1 0
BITMAP
7C
FC
FC
FC
FC
FC
FC
FC
FC
FC
FC
FC
FC
FC
FC
FC
FC
FC
FC
FC
FC
FC
ENDCHAR
STARTCHAR m
ENCODING 109
SWIDTH 788 0
DWIDTH 24 0
BBX 22 16 1 0
BITMAP
60E1E0
FFFFF8
FFFFF8
FFFFFC
FFFFFC
FE7EFC
7E7C7C
7E7C7C
7E7C7C
7E7C7C
7E7C7C
7E7C7C
7E7C7C
7E7C7C
7E7C7C
7E7C7C
ENDCHAR
STARTCHAR n
ENCODING 110
SWIDTH 551 0
DWIDTH 17 0
BBX 15 16 1 0
BITMAP
60F0
FBF8
FFFC
FFFE
FFFE
FF7E
3E3E
3E3E
3E3E
3E3E
3E3E
3E3E
3E3E
3E3E
3E3E
3E3E
ENDCHAR
STARTCHAR o
ENCODING 111
SWIDTH 513 0
DWIDTH 16 0
BBX 14 16 1 0
BITMAP
0780
1FE0
3FF0
7FF8
FFF8
FCFC
F8FC
F87C
F87C
F87C
FCFC
FFFC
7FF8
7FF8
3FF0
1FC0
ENDCHAR
STARTCHAR p
ENCODING 112
SWIDTH 555 0
DWIDTH 17 0
BBX 15 22 1 -6
BITMAP
60E0
FFF8
FFFC
FFFE
FFFE
FFFE
3E3E
3E3E
3E3E
3E3E
3E3E
3F7E
3FFE
3FFC
3FF8
3FF0
3E00
3E00
3E00
3E00
3E00
3E00
ENDCHAR
STARTCHAR q
ENCODING 113
SWIDTH 511 0
DWIDTH 16 0
BBX 13 22 1 -6
BITMAP
07C0
1FF8
3FF8
7FF8
FFF8
FCF8
FCF8
F8F8
F8F8
F8F8
FCF8
FFF8
7FF8
7FF8
3FF8
1FF8
00F8
00F8
00F8
00F8
00F8
00F8
ENDCHAR
STARTCHAR r
ENCODING 114
SWIDTH 396 0
DWIDTH 12 0
BBX 11 16 1 0
BITMAP
61C0
F3E0
FFE0
FFE0
FFE0
FF40
3E00
3E00
3E00
3E00
3E00
3E00
3E00
3E00
3E00
3E00
ENDCHAR
STARTCHAR s
ENCODING 115
SWIDTH 450 0
DWIDTH 14 0
BBX 12 16 1 0
BITMAP
0F80
3FF0
7FF0
7FE0
FE60
FE00
7F80
7FC0
3FE0
1FF0
47F0
E3F0
FFF0
FFF0
FFE0
7F80
ENDCHAR
STARTCHAR t
ENCODING 116
SWIDTH 368 0
DWIDTH 11 0
BBX 10 19 1 0
BITMAP
3C00
3E00
3E00
FFC0
FFC0
FFC0
FFC0
FFC0
3F00
3F00
3F00
3F00
3F00
3F00
3F00
3F00
3F00
3F00
3F00
ENDCHAR
STARTCHAR u
ENCODING 117
SWIDTH 544 0
DWIDTH 17 0
BBX 15 16 1 0
BITMAP
3030
FCFC
FCFC
FCFC
FCFC
FCFC
FCFC
FCFC
FCFC
FCFC
FCFC
FFFE
FFFE
7FFE
7FFE
1F9E
ENDCHAR
STARTCHAR v
ENCODING 118
SWIDTH 521 0
DWIDTH 16 0
BBX 16 16 0 0
BITMAP
7C2E
FC3F
7E3E
7E3E
7E7E
7E7E
3E7C
3F7C
3F7C
1F78
1FF8
1FF8
1FF8
0FF0
0FF0
0FF0
ENDCHAR
STARTCHAR w
ENCODING 119
SWIDTH 752 0
DWIDTH 23 0
BBX 23 16 0 0
BITMAP
FC3838
7C7C7E
7C7C7E
7C7E7C
7C7E7C
7CFE7C
7EFE7C
3EFF7C
3EFF78
3FFF78
3FEFF8
3FEFF8
1FEFF8
1FE7F0
1FC7F0
1FC7F0
ENDCHAR
STARTCHAR x
ENCODING 120
SWIDTH 557 0
DWIDTH 17 0
BBX 17 16 0 0
BITMAP
BC1C80
7E3F00
7F3F00
3F3E00
3F7E00
1FFC00
1FFC00
0FF800
0FF800
0FF800
1FFC00
1F7E00
3F7E00
3F3F00
7E3F00
7E3F80
ENDCHAR
STARTCHAR y
ENCODING 121
SWIDTH 537 0
DWIDTH 17 0
BBX 16 22 0 -6
BITMAP
B81C
7C3F
7E3F
7E3E
3E7E
3F7E
3F7C
1FFC
1FFC
0FF8
0FF8
0FF8
07F0
07F0
07E0
07E0
07E0
0FC0
0FC0
0FC0
1F80
0F80
ENDCHAR
STARTCHAR z
ENCODING 122
SWIDTH 454 0
DWIDTH 14 0
BBX 12 16 1 0
BITMAP
7FE0
FFE0
FFF0
FFF0
FFF0
03E0
07C0
0F80
1F00
3F00
7E00
FFF0
FFF0
FFF0
FFF0
7FF0
ENDCHAR
STARTCHAR braceleft
ENCODING 123
SWIDTH 362 0
DWIDTH 11 0
BBX 8 33 1 -7
BITMAP
0E
1F
1E
3C
3C
3C
3C
3C
3C
3C
3C
3C
3C
3C
F8
F8
F0
F8
7C
3C
3C
3C
3C
3C
3C
3C
3C
3C
3C
1E
1F
0E
04
ENDCHAR
STARTCHAR bar
ENCODING 124
SWIDTH 628 0
DWIDTH 19 0
BBX 3 36 8 -7
BITMAP
40
E0
E0
E0
E0
E0
E0
E0
E0
E0
E0
E0
E0
E0
E0
E0
E0
E0
E0
E0
E0
E0
E0
E0
E0
E0
E0
E0
E0
E0
E0
E0
E0
E0
E0
E0
ENDCHAR
STARTCHAR braceright
ENCODING 125
SWIDTH 362 0
DWIDTH 11 0
BBX 7 33 3 -7
BITMAP
E0
F0
F8
78
78
78
78
78
78
78
78
78
78
78
3E
3E
1E
3E
7C
78
78
78
78
78
78
78
78
78
78
78
F0
F0
60
ENDCHAR
STARTCHAR asciitilde
ENCODING 126
SWIDTH 459 0
DWIDTH 14 0
BBX 12 5 1 7
BITMAP
1020
7EE0
FFF0
FFE0
43C0
ENDCHAR
STARTCHAR exclamdown
ENCODING 161
SWIDTH 287 0
DWIDTH 9 0
BBX 6 22 1 -6
BITMAP
38
FC
FC
FC
FC
00
00
78
7C
7C
7C
7C
7C
7C
7C
7C
7C
7C
7C
FC
FC
FC
ENDCHAR
STARTCHAR cent
ENCODING 162
SWIDTH 528 0
DWIDTH 16 0
BBX 14 24 1 -1
BITMAP
0080
0080
0080
07F0
1FF8
3FFC
7FF8
7FF8
7FF0
FC80
FC80
F880
F880
FC80
FC88
7FF8
7FF8
7FFC
3FFC
1FF8
07F0
0080
0080
0080
ENDCHAR
STARTCHAR sterling
ENCODING 163
SWIDTH 490 0
DWIDTH 15 0
BBX 13 22 1 0
BITMAP
0FF0
3FF8
7FF8
7FF8
7FF8
7FF0
7E00
7C00
7C00
3E00
FFF0
FFF0
FFE0
1F00
1F00
3F00
3E00
7FF8
FFF8
FFF8
7FF8
7FF8
ENDCHAR
STARTCHAR currency
ENCODING 164
SWIDTH 728 0
DWIDTH 23 0
BBX 16 17 3 2
BITMAP
4002
E007
F7EF
7FFE
3FFC
3C3C
381C
701E
700E
700E
381C
3C3C
3FFC
7FFE
F7EF
E007
4002
ENDCHAR
STARTCHAR yen
ENCODING 165
SWIDTH 659 0
DWIDTH 20 0
BBX 20 22 0 0
BITMAP
FE03F0
7F07E0
7F0FE0
3F8FC0
1F9FC0
1FFF80
0FFF00
07FF00
07FE00
3FFFC0
3FFFC0
1FFFC0
01F800
1FFFC0
3FFFC0
01F800
01F800
01F800
01F800
01F800
01F800
01F800
ENDCHAR
STARTCHAR brokenbar
ENCODING 166
SWIDTH 415 0
DWIDTH 13 0
BBX 3 30 5 -7
BITMAP
E0
E0
E0
E0
E0
E0
E0
E0
E0
E0
E0
E0
E0
00
00
00
E0
E0
E0
E0
E0
E0
E0
E0
E0
E0
E0
E0
E0
E0
ENDCHAR
STARTCHAR section
ENCODING 167
SWIDTH 617 0
DWIDTH 19 0
BBX 16 28 1 -6
BITMAP
07FC
1FFE
3FFE
7FFE
7FFE
7F0C
7F00
7F80
7FC0
3FF8
1FFC
3FFE
7FFF
7C3F
7C1F
7E1F
7FFE
3FFE
3FFC
0FFE
03FF
40FF
707F
FFFF
FFFF
FFFE
7FFC
3FF8
ENDCHAR
STARTCHAR dieresis
ENCODING 168
SWIDTH 457 0
DWIDTH 14 0
BBX 12 5 1 17
BITMAP
70F0
F1F0
F1F0
F1F0
F1F0
ENDCHAR
STARTCHAR copyright
ENCODING 169
SWIDTH 693 0
DWIDTH 21 0
BBX 16 17 3 6
BITMAP
03C0
0FF0
381C
700E
63E6
C7E3
CFC3
8E01
8E01
8E01
CFE3
C7E3
E3E6
700E
381C
1FF8
07E0
ENDCHAR
STARTCHAR ordfeminine
ENCODING 170
SWIDTH 506 0
DWIDTH 16 0
BBX 11 11 2 11
BITMAP
1E00
3F80
3F80
0380
0F80
7F80
7B80
F3C0
7FE0
7FE0
3EC0
ENDCHAR
STARTCHAR guillemotleft
ENCODING 171
SWIDTH 773 0
DWIDTH 24 0
BBX 18 14 3 1
BITMAP
060300
0F0380
1F0780
1E0F80
3C1F00
783E00
F07C00
F07C00
783C00
3C1E00
3E0F00
1F0780
0F07C0
060380
ENDCHAR
STARTCHAR logicalnot
ENCODING 172
SWIDTH 613 0
DWIDTH 19 0
BBX 14 8 2 2
BITMAP
FFFC
FFFC
FFFC
003C
003C
003C
003C
003C
ENDCHAR
STARTCHAR uni00AD
ENCODING 173
SWIDTH 454 0
DWIDTH 14 0
BBX 11 3 1 6
BITMAP
7FE0
FFE0
7FE0
ENDCHAR
STARTCHAR registered
ENCODING 174
SWIDTH 701 0
DWIDTH 22 0
BBX 16 17 3 6
BITMAP
03C0
0FF0
381C
700E
67E6
C7F3
C773
8771
87E1
87E1
C7F3
C77B
E776
700E
381C
1FF8
07E0
ENDCHAR
STARTCHAR degree
ENCODING 176
SWIDTH 386 0
DWIDTH 12 0
BBX 10 11 1 11
BITMAP
0C00
3F00
7F80
6180
C1C0
C0C0
C1C0
E180
7380
7F80
1E00
ENDCHAR
STARTCHAR plusminus
ENCODING 177
SWIDTH 595 0
DWIDTH 18 0
BBX 14 17 2 3
BITMAP
0380
0780
0780
0780
0780
FFFC
FFFC
FFFC
FFFC
0780
0780
0780
0000
7FFC
FFFC
FFFC
FFFC
ENDCHAR
STARTCHAR twosuperior
ENCODING 178
SWIDTH 352 0
DWIDTH 11 0
BBX 7 11 2 11
BITMAP
78
FE
FE
FE
1E
1C
3C
78
FE
FE
FE
ENDCHAR
STARTCHAR threesuperior
ENCODING 179
SWIDTH 305 0
DWIDTH 9 0
BBX 7 11 1 11
BITMAP
38
FE
FE
5E
1C
3C
0E
8E
FE
FE
7C
ENDCHAR
STARTCHAR acute
ENCODING 180
SWIDTH 357 0
DWIDTH 11 0
BBX 7 6 2 16
BITMAP
0C
1E
7E
FC
70
40
ENDCHAR
STARTCHAR mu
ENCODING 181
SWIDTH 572 0
DWIDTH 18 0
BBX 15 22 1 -6
BITMAP
3030
FCFC
FCFC
FCFC
FCFC
FCFC
FCFC
FCFC
FCFC
FCFC
FCFC
FFFE
FFFE
FFFE
FFFE
FF9E
FC00
FC00
FC00
FC00
FC00
7800
ENDCHAR
STARTCHAR paragraph
ENCODING 182
SWIDTH 780 0
DWIDTH 24 0
BBX 21 22 1 0
BITMAP
07FFF0
3FFFF8
7FFFF8
7FFFF8
FFFFF8
FFFFC0
FFCFC0
FFCFC0
FFCFC0
FFCFC0
7FCFC0
7FCFC0
1FCFC0
07CFC0
07CFC0
07CFC0
07CFC0
07CFC0
07CFC0
07CFC0
07CFC0
07CFC0
ENDCHAR
STARTCHAR periodcentered
ENCODING 183
SWIDTH 309 0
DWIDTH 10 0
BBX 6 6 2 7
BITMAP
30
FC
FC
FC
FC
FC
ENDCHAR
STARTCHAR cedilla
ENCODING 184
SWIDTH 402 0
DWIDTH 12 0
BBX 6 6 3 -5
BITMAP
18
18
1C
FC
FC
FC
ENDCHAR
STARTCHAR onesuperior
ENCODING 185
SWIDTH 283 0
DWIDTH 9 0
BBX 6 11 1 11
BITMAP
7C
FC
FC
7C
3C
3C
3C
3C
3C
3C
3C
ENDCHAR
STARTCHAR ordmasculine
ENCODING 186
SWIDTH 366 0
DWIDTH 11 0
BBX 10 11 1 11
BITMAP
0C00
3F00
7F80
7F80
F3C0
F3C0
F3C0
FF80
7F80
7F80
1E00
ENDCHAR
STARTCHAR guillemotright
ENCODING 187
SWIDTH 732 0
DWIDTH 23 0
BBX 18 14 3 1
BITMAP
603000
F07800
F87C00
783E00
3C1F00
1E0F00
0F0780
0F07C0
1E0F80
3C1F00
7C3E00
F87C00
F07800
603000
ENDCHAR
STARTCHAR onequarter
ENCODING 188
SWIDTH 839 0
DWIDTH 26 0
BBX 21 22 3 0
BITMAP
F80100
F80380
F80780
F80700
380F00
380E00
381C00
383C00
383800
387800
38F000
00E1F0
01E1F0
01C3F0
03C7F0
078770
070E70
0F0FF8
0E0FF8
1E07F8
3C00F0
1800F0
ENDCHAR
STARTCHAR onehalf
ENCODING 189
SWIDTH 848 0
DWIDTH 26 0
BBX 21 22 3 0
BITMAP
F80100
F80380
F80780
F80700
380F00
380E00
381C00
383C00
383800
387800
38F000
00E0E0
01E3F0
01C3F8
03C3F8
078078
070070
0F00E0
0E01E0
1E03F8
3C03F8
1803F8
ENDCHAR
STARTCHAR threequarters
ENCODING 190
SWIDTH 868 0
DWIDTH 27 0
BBX 22 22 2 0
BITMAP
1C0080
FE01C0
7E03C0
5E0380
0E0780
3C0700
0E0E00
8F1E00
FF1C00
FE3C00
3C7800
0070F8
00F0F8
00E1F8
01E3F8
03C3B8
038738
0787FC
0707FC
0F03FC
1E0078
0C0078
ENDCHAR
STARTCHAR questiondown
ENCODING 191
SWIDTH 584 0
DWIDTH 18 0
BBX 14 23 2 -7
BITMAP
03E0
03E0
03E0
03E0
03E0
0000
0000
03E0
03E0
07E0
0FC0
1F80
3F00
7F00
7E00
FE00
FE10
FFF8
FFFC
7FFC
7FF8
3FF0
0200
ENDCHAR
STARTCHAR Agrave
ENCODING 192
SWIDTH 655 0
DWIDTH 20 0
BBX 20 28 0 0
BITMAP
01C000
01E000
01F800
00FC00
003800
000000
01F800
03FE00
07FE00
07FE00
07FE00
07FF00
0FFF00
0FFF00
0FBF00
0FBF80
1F9F80
1F9F80
1F1F80
1FFFC0
3FFFC0
3FFFC0
3FFFC0
3E0FE0
7E0FE0
7E07E0
7E07E0
FC07F0
ENDCHAR
STARTCHAR Aacute
ENCODING 193
SWIDTH 655 0
DWIDTH 20 0
BBX 20 28 0 0
BITMAP
001800
007800
01FC00
01F000
01C000
000000
01F800
03FE00
07FE00
07FE00
07FE00
07FF00
0FFF00
0FFF00
0FBF00
0FBF80
1F9F80
1F9F80
1F1F80
1FFFC0
3FFFC0
3FFFC0
3FFFC0
3E0FE0
7E0FE0
7E07E0
7E07E0
FC07F0
ENDCHAR
STARTCHAR Acircumflex
ENCODING 194
SWIDTH 655 0
DWIDTH 20 0
BBX 20 28 0 0
BITMAP
007000
01F800
07FE00
07FE00
070E00
020200
01F800
03FE00
07FE00
07FE00
07FE00
07FF00
0FFF00
0FFF00
0FBF00
0FBF80
1F9F80
1F9F80
1F1F80
1FFFC0
3FFFC0
3FFFC0
3FFFC0
3E0FE0
7E0FE0
7E07E0
7E07E0
FC07F0
ENDCHAR
STARTCHAR Atilde
ENCODING 195
SWIDTH 655 0
DWIDTH 20 0
BBX 20 28 0 0
BITMAP
03C200
07FF00
0FFF00
077E00
041C00
000000
01F800
03FE00
07FE00
07FE00
07FE00
07FF00
0FFF00
0FFF00
0FBF00
0FBF80
1F9F80
1F9F80
1F1F80
1FFFC0
3FFFC0
3FFFC0
3FFFC0
3E0FE0
7E0FE0
7E07E0
7E07E0
FC07F0
ENDCHAR
STARTCHAR Adieresis
ENCODING 196
SWIDTH 655 0
DWIDTH 20 0
BBX 20 28 0 0
BITMAP
0F8F00
0F8F00
0F8F00
0F8F00
0F8F00
000000
01F800
03FE00
07FE00
07FE00
07FE00
07FF00
0FFF00
0FFF00
0FBF00
0FBF80
1F9F80
1F9F80
1F1F80
1FFFC0
3FFFC0
3FFFC0
3FFFC0
3E0FE0
7E0FE0
7E07E0
7E07E0
FC07F0
ENDCHAR
STARTCHAR Aring
ENCODING 197
SWIDTH 655 0
DWIDTH 20 0
BBX 20 28 0 0
BITMAP
00F000
008800
010800
010800
00F000
002000
01F800
03FE00
07FE00
07FE00
07FE00
07FF00
0FFF00
0FFF00
0FBF00
0FBF80
1F9F80
1F9F80
1F1F80
1FFFC0
3FFFC0
3FFFC0
3FFFC0
3E0FE0
7E0FE0
7E07E0
7E07E0
FC07F0
ENDCHAR
STARTCHAR AE
ENCODING 198
SWIDTH 917 0
DWIDTH 28 0
BBX 26 22 1 0
BITMAP
003FFF80
003FFF80
007FFF80
007FFF80
00FFFF80
00FFFF80
01FFE000
01F7E000
03F7E000
03F7FE00
07E7FF00
07E7FF00
0FC7FE00
0FFFFE00
1FFFE000
1FFFE000
1FFFE000
3F07FF80
3F07FF80
7E07FFC0
7E07FF80
FC07FF80
ENDCHAR
STARTCHAR Ccedilla
ENCODING 199
SWIDTH 546 0
DWIDTH 17 0
BBX 16 28 0 -6
BITMAP
01F8
07FE
0FFF
1FFE
3FFE
3FFE
7F84
7F00
7E00
7E00
FE00
FE00
7E00
7E00
7F00
7F84
7FFE
3FFE
3FFF
1FFF
0FFF
03FC
0060
00E0
03E0
03F0
03E0
0180
ENDCHAR
STARTCHAR Egrave
ENCODING 200
SWIDTH 488 0
DWIDTH 15 0
BBX 13 28 1 0
BITMAP
0C00
1F00
1FC0
0FC0
01C0
0000
7FF8
FFF8
FFF8
FFF8
FFF8
FFF8
FC00
FC00
FC00
FFE0
FFE0
FFE0
FFE0
FFC0
FC00
FC00
FC00
FFF8
FFF8
FFF8
FFF8
FFF8
ENDCHAR
STARTCHAR Eacute
ENCODING 201
SWIDTH 488 0
DWIDTH 15 0
BBX 13 28 1 0
BITMAP
0180
07C0
1FC0
1F80
0C00
0000
7FF8
FFF8
FFF8
FFF8
FFF8
FFF8
FC00
FC00
FC00
FFE0
FFE0
FFE0
FFE0
FFC0
FC00
FC00
FC00
FFF8
FFF8
FFF8
FFF8
FFF8
ENDCHAR
STARTCHAR Ecircumflex
ENCODING 202
SWIDTH 488 0
DWIDTH 15 0
BBX 13 28 1 0
BITMAP
0700
1FC0
3FF0
7DF0
3060
2020
7FF8
FFF8
FFF8
FFF8
FFF8
FFF8
FC00
FC00
FC00
FFE0
FFE0
FFE0
FFE0
FFC0
FC00
FC00
FC00
FFF8
FFF8
FFF8
FFF8
FFF8
ENDCHAR
STARTCHAR Edieresis
ENCODING 203
SWIDTH 488 0
DWIDTH 15 0
BBX 13 28 1 0
BITMAP
78F0
78F0
78F0
78F0
78F0
0000
7FF8
FFF8
FFF8
FFF8
FFF8
FFF8
FC00
FC00
FC00
FFE0
FFE0
FFE0
FFE0
FFC0
FC00
FC00
FC00
FFF8
FFF8
FFF8
FFF8
FFF8
ENDCHAR
STARTCHAR Igrave
ENCODING 204
SWIDTH 432 0
DWIDTH 13 0
BBX 12 28 1 0
BITMAP
1800
3E00
3F80
1F80
0380
0000
FFE0
FFF0
FFF0
FFF0
FFF0
FFE0
1F80
1F80
1F80
1F80
1F80
1F80
1F80
1F80
1F80
1F80
1F80
FFF0
FFF0
FFF0
FFF0
FFE0
ENDCHAR
STARTCHAR Iacute
ENCODING 205
SWIDTH 432 0
DWIDTH 13 0
BBX 12 28 1 0
BITMAP
0300
0F80
1F80
3F00
1C00
0000
FFE0
FFF0
FFF0
FFF0
FFF0
FFE0
1F80
1F80
1F80
1F80
1F80
1F80
1F80
1F80
1F80
1F80
1F80
FFF0
FFF0
FFF0
FFF0
FFE0
ENDCHAR
STARTCHAR Icircumflex
ENCODING 206
SWIDTH 432 0
DWIDTH 13 0
BBX 12 28 1 0
BITMAP
0E00
3F80
7FE0
FBE0
70E0
4040
FFE0
FFF0
FFF0
FFF0
FFF0
FFE0
1F80
1F80
1F80
1F80
1F80
1F80
1F80
1F80
1F80
1F80
1F80
FFF0
FFF0
FFF0
FFF0
FFE0
ENDCHAR
STARTCHAR Idieresis
ENCODING 207
SWIDTH 432 0
DWIDTH 13 0
BBX 12 28 1 0
BITMAP
F1E0
F1E0
F1E0
F1E0
F1E0
0000
FFE0
FFF0
FFF0
FFF0
FFF0
FFE0
1F80
1F80
1F80
1F80
1F80
1F80
1F80
1F80
1F80
1F80
1F80
FFF0
FFF0
FFF0
FFF0
FFE0
ENDCHAR
STARTCHAR Eth
ENCODING 208
SWIDTH 620 0
DWIDTH 19 0
BBX 18 22 0 0
BITMAP
3FE000
3FFC00
3FFF00
3FFF80
3FFF80
3FFFC0
3F1FC0
3F0FC0
3F0FC0
FFCFC0
FFCFC0
FFCFC0
FF8FC0
3F0FC0
3F0FC0
3F1FC0
3FFFC0
3FFF80
3FFF80
3FFF00
3FFC00
3FF000
ENDCHAR
STARTCHAR Ntilde
ENCODING 209
SWIDTH 657 0
DWIDTH 20 0
BBX 17 28 1 0
BITMAP
078400
0FFE00
1FFE00
0EFC00
083800
000000
FC0F80
FE0F80
FE0F80
FF0F80
FF0F80
FF8F80
FF8F80
FFCF80
FFCF80
FFEF80
FFFF80
FFFF80
FFFF80
FDFF80
FDFF80
FCFF80
FC7F80
FC7F80
FC3F80
FC3F80
FC1F80
FC1F80
ENDCHAR
STARTCHAR Ograve
ENCODING 210
SWIDTH 696 0
DWIDTH 22 0
BBX 20 28 1 0
BITMAP
018000
01E000
03F800
00F800
003800
000000
01F800
0FFE00
1FFF80
3FFFC0
7FFFC0
7FFFE0
7F1FE0
FE0FE0
FE07E0
FC07F0
FC07F0
FC07F0
FC07F0
FE07F0
FE07E0
FF0FE0
7FFFE0
7FFFC0
3FFFC0
1FFF80
0FFF00
03FC00
ENDCHAR
STARTCHAR Oacute
ENCODING 211
SWIDTH 696 0
DWIDTH 22 0
BBX 20 28 1 0
BITMAP
003000
00F800
01F800
03F000
01C000
000000
01F800
0FFE00
1FFF80
3FFFC0
7FFFC0
7FFFE0
7F1FE0
FE0FE0
FE07E0
FC07F0
FC07F0
FC07F0
FC07F0
FE07F0
FE07E0
FF0FE0
7FFFE0
7FFFC0
3FFFC0
1FFF80
0FFF00
03FC00
ENDCHAR
STARTCHAR Ocircumflex
ENCODING 212
SWIDTH 696 0
DWIDTH 22 0
BBX 20 28 1 0
BITMAP
00E000
01F800
07FE00
0FBE00
070E00
040400
01F800
0FFE00
1FFF80
3FFFC0
7FFFC0
7FFFE0
7F1FE0
FE0FE0
FE07E0
FC07F0
FC07F0
FC07F0
FC07F0
FE07F0
FE07E0
FF0FE0
7FFFE0
7FFFC0
3FFFC0
1FFF80
0FFF00
03FC00
ENDCHAR
STARTCHAR Otilde
ENCODING 213
SWIDTH 696 0
DWIDTH 22 0
BBX 20 28 1 0
BITMAP
03C200
0FFF00
0FFF00
0EFE00
041800
000000
01F800
0FFE00
1FFF80
3FFFC0
7FFFC0
7FFFE0
7F1FE0
FE0FE0
FE07E0
FC07F0
FC07F0
FC07F0
FC07F0
FE07F0
FE07E0
FF0FE0
7FFFE0
7FFFC0
3FFFC0
1FFF80
0FFF00
03FC00
ENDCHAR
STARTCHAR Odieresis
ENCODING 214
SWIDTH 696 0
DWIDTH 22 0
BBX 20 28 1 0
BITMAP
0F1E00
0F1E00
0F1E00
0F1E00
0F1E00
000000
01F800
0FFE00
1FFF80
3FFFC0
7FFFC0
7FFFE0
7F1FE0
FE0FE0
FE07E0
FC07F0
FC07F0
FC07F0
FC07F0
FE07F0
FE07E0
FF0FE0
7FFFE0
7FFFC0
3FFFC0
1FFF80
0FFF00
03FC00
ENDCHAR
STARTCHAR multiply
ENCODING 215
SWIDTH 610 0
DWIDTH 19 0
BBX 13 13 3 4
BITMAP
6020
F070
F8F8
7DF0
3FE0
1FC0
0F80
1FC0
3FE0
7DF0
F8F8
7070
0020
ENDCHAR
STARTCHAR Oslash
ENCODING 216
SWIDTH 696 0
DWIDTH 22 0
BBX 20 27 1 -3
BITMAP
000380
0007C0
03FF80
0FFF80
1FFF80
3FFFC0
7FFFC0
7E3FE0
7C3FE0
FC7BE0
FC7BE0
F8F3F0
F8F3F0
F9E3F0
F9E3F0
FBC3E0
FFC3E0
FF87E0
7F87E0
7F9FC0
3FFFC0
1FFF80
1FFF00
3FFC00
3C0000
380000
080000
ENDCHAR
STARTCHAR Ugrave
ENCODING 217
SWIDTH 628 0
DWIDTH 19 0
BBX 17 28 1 0
BITMAP
030000
07C000
07F000
03F000
007000
000000
FC1F80
FE1F80
FE1F80
FE1F80
FE1F80
FE1F80
FE1F80
FE1F80
FE1F80
FE1F80
FE1F80
FE1F80
FE1F80
FE1F80
FE1F80
FF3F80
FFFF80
FFFF80
7FFF80
3FFF00
1FFE00
0FF800
ENDCHAR
STARTCHAR Uacute
ENCODING 218
SWIDTH 628 0
DWIDTH 19 0
BBX 17 28 1 0
BITMAP
006000
01F000
03F000
07E000
038000
000000
FC1F80
FE1F80
FE1F80
FE1F80
FE1F80
FE1F80
FE1F80
FE1F80
FE1F80
FE1F80
FE1F80
FE1F80
FE1F80
FE1F80
FE1F80
FF3F80
FFFF80
FFFF80
7FFF80
3FFF00
1FFE00
0FF800
ENDCHAR
STARTCHAR Ucircumflex
ENCODING 219
SWIDTH 628 0
DWIDTH 19 0
BBX 17 28 1 0
BITMAP
01C000
03F000
0FFC00
1F7C00
0E1C00
080800
FC1F80
FE1F80
FE1F80
FE1F80
FE1F80
FE1F80
FE1F80
FE1F80
FE1F80
FE1F80
FE1F80
FE1F80
FE1F80
FE1F80
FE1F80
FF3F80
FFFF80
FFFF80
7FFF80
3FFF00
1FFE00
0FF800
ENDCHAR
STARTCHAR Udieresis
ENCODING 220
SWIDTH 628 0
DWIDTH 19 0
BBX 17 28 1 0
BITMAP
1E3C00
1E3C00
1E3C00
1E3C00
1E3C00
000000
FC1F80
FE1F80
FE1F80
FE1F80
FE1F80
FE1F80
FE1F80
FE1F80
FE1F80
FE1F80
FE1F80
FE1F80
FE1F80
FE1F80
FE1F80
FF3F80
FFFF80
FFFF80
7FFF80
3FFF00
1FFE00
0FF800
ENDCHAR
STARTCHAR Yacute
ENCODING 221
SWIDTH 615 0
DWIDTH 19 0
BBX 20 28 0 0
BITMAP
003000
00F800
03F800
03F000
03C000
000000
FE07F0
FF0FE0
7F0FE0
7F1FC0
3F9FC0
3F9F80
1FBF80
1FFF00
1FFF00
0FFE00
0FFE00
07FC00
07FC00
03F800
03F800
03F800
03F800
03F800
03F800
03F800
03F800
03F800
ENDCHAR
STARTCHAR Thorn
ENCODING 222
SWIDTH 595 0
DWIDTH 18 0
BBX 15 22 1 0
BITMAP
FC00
FC00
FC00
FFF0
FFF8
FFFC
FFFE
FFFE
FC7E
FC7E
FC7E
FC7E
FCFE
FFFE
FFFC
FFFC
FFF8
FFE0
FC00
FC00
FC00
FC00
ENDCHAR
STARTCHAR germandbls
ENCODING 223
SWIDTH 672 0
DWIDTH 21 0
BBX 16 27 3 -5
BITMAP
0FE0
3FF8
7FF8
FFFC
FFFC
FCFC
F87C
F87C
F8FC
F9F8
FBF8
FBF8
F9FE
F87F
F83F
F83F
FA3F
FBFF
FBFF
FBFF
FBFE
F9FC
F800
F800
F800
F800
6000
ENDCHAR
STARTCHAR agrave
ENCODING 224
SWIDTH 517 0
DWIDTH 16 0
BBX 16 22 0 0
BITMAP
0600
0780
0FE0
07E0
01E0
0040
0FC0
1FF0
3FF8
1FF8
18F8
00F8
1FF8
3FF8
7FF8
7CF8
FCF8
FCFE
7FFF
7FFF
3FFE
1F9E
ENDCHAR
STARTCHAR aacute
ENCODING 225
SWIDTH 517 0
DWIDTH 16 0
BBX 16 22 0 0
BITMAP
00C0
01E0
07E0
0FC0
0F00
0400
0FC0
1FF0
3FF8
1FF8
18F8
00F8
1FF8
3FF8
7FF8
7CF8
FCF8
FCFE
7FFF
7FFF
3FFE
1F9E
ENDCHAR
STARTCHAR acircumflex
ENCODING 226
SWIDTH 517 0
DWIDTH 16 0
BBX 16 22 0 0
BITMAP
0180
07C0
1FF0
3EF8
1C78
1010
0FC0
1FF0
3FF8
1FF8
18F8
00F8
1FF8
3FF8
7FF8
7CF8
FCF8
FCFE
7FFF
7FFF
3FFE
1F9E
ENDCHAR
STARTCHAR atilde
ENCODING 227
SWIDTH 517 0
DWIDTH 16 0
BBX 16 22 0 0
BITMAP
0608
1FFC
3FFC
3FF8
1070
0000
0FC0
1FF0
3FF8
1FF8
18F8
00F8
1FF8
3FF8
7FF8
7CF8
FCF8
FCFE
7FFF
7FFF
3FFE
1F9E
ENDCHAR
STARTCHAR adieresis
ENCODING 228
SWIDTH 517 0
DWIDTH 16 0
BBX 16 22 0 0
BITMAP
1C38
3C78
3C78
3C78
3C78
0000
0FC0
1FF0
3FF8
1FF8
18F8
00F8
1FF8
3FF8
7FF8
7CF8
FCF8
FCFE
7FFF
7FFF
3FFE
1F9E
ENDCHAR
STARTCHAR aring
ENCODING 229
SWIDTH 517 0
DWIDTH 16 0
BBX 16 22 0 0
BITMAP
0380
0640
0420
0420
0240
0100
0FC0
1FF0
3FF8
1FF8
18F8
00F8
1FF8
3FF8
7FF8
7CF8
FCF8
FCFE
7FFF
7FFF
3FFE
1F9E
ENDCHAR
STARTCHAR ae
ENCODING 230
SWIDTH 685 0
DWIDTH 21 0
BBX 21 15 0 0
BITMAP
1FDFC0
3FFFE0
1FFFF0
1FFFF0
00F9F8
0FF8F8
3FFFF0
7FFFF0
7CFFE0
FCFF80
FCF820
7FFFF0
7FFFF0
3FFFF0
1F9FE0
ENDCHAR
STARTCHAR ccedilla
ENCODING 231
SWIDTH 424 0
DWIDTH 13 0
BBX 12 21 1 -5
BITMAP
0780
1FE0
3FF0
7FF0
FFF0
FCE0
FC40
FC00
F800
FC00
FC00
FFE0
7FE0
7FE0
3FE0
1FE0
0700
0700
1F80
1F00
1F00
ENDCHAR
STARTCHAR egrave
ENCODING 232
SWIDTH 486 0
DWIDTH 15 0
BBX 13 22 1 0
BITMAP
0C00
1F00
1F80
0FC0
03C0
0080
0780
1FE0
3FF0
7FF8
7FF8
FCF8
FCF8
FFF8
FFF8
FFF0
FFC0
FC10
7FF0
7FF8
3FF8
0FE0
ENDCHAR
STARTCHAR eacute
ENCODING 233
SWIDTH 486 0
DWIDTH 15 0
BBX 13 22 1 0
BITMAP
0080
03C0
0FC0
1F80
0E00
0800
0780
1FE0
3FF0
7FF8
7FF8
FCF8
FCF8
FFF8
FFF8
FFF0
FFC0
FC10
7FF0
7FF8
3FF8
0FE0
ENDCHAR
STARTCHAR ecircumflex
ENCODING 234
SWIDTH 486 0
DWIDTH 15 0
BBX 13 22 1 0
BITMAP
0300
0F80
3FE0
7FF0
38F0
2020
0780
1FE0
3FF0
7FF8
7FF8
FCF8
FCF8
FFF8
FFF8
FFF0
FFC0
FC10
7FF0
7FF8
3FF8
0FE0
ENDCHAR
STARTCHAR edieresis
ENCODING 235
SWIDTH 486 0
DWIDTH 15 0
BBX 13 22 1 0
BITMAP
3870
78F0
78F0
78F0
78F0
0000
0780
1FE0
3FF0
7FF8
7FF8
FCF8
FCF8
FFF8
FFF8
FFF0
FFC0
FC10
7FF0
7FF8
3FF8
0FE0
ENDCHAR
STARTCHAR igrave
ENCODING 236
SWIDTH 267 0
DWIDTH 8 0
BBX 7 22 1 0
BITMAP
40
F0
FC
FE
1C
04
00
FC
FC
FC
FC
FC
FC
FC
FC
FC
FC
FC
FC
FC
FC
FC
ENDCHAR
STARTCHAR iacute
ENCODING 237
SWIDTH 267 0
DWIDTH 8 0
BBX 7 22 1 0
BITMAP
0C
3C
FE
FC
E0
80
00
FC
FC
FC
FC
FC
FC
FC
FC
FC
FC
FC
FC
FC
FC
FC
ENDCHAR
STARTCHAR icircumflex
ENCODING 238
SWIDTH 267 0
DWIDTH 8 0
BBX 10 22 -1 0
BITMAP
0C00
3F00
FFC0
FFC0
E1C0
4040
0000
3F00
3F00
3F00
3F00
3F00
3F00
3F00
3F00
3F00
3F00
3F00
3F00
3F00
3F00
3F00
ENDCHAR
STARTCHAR idieresis
ENCODING 239
SWIDTH 267 0
DWIDTH 8 0
BBX 12 22 -2 0
BITMAP
78F0
F9F0
F9F0
F9F0
F9F0
0000
0000
1F80
1F80
1F80
1F80
1F80
1F80
1F80
1F80
1F80
1F80
1F80
1F80
1F80
1F80
1F80
ENDCHAR
STARTCHAR eth
ENCODING 240
SWIDTH 574 0
DWIDTH 18 0
BBX 16 22 1 0
BITMAP
0380
07E0
0FE0
07F7
03FF
1FFE
3FFC
38FC
007E
007E
1FFE
3FFE
7FFE
FFFE
FC7E
FC7E
FC7E
FFFC
7FFC
7FF8
3FF0
1FE0
ENDCHAR
STARTCHAR ntilde
ENCODING 241
SWIDTH 551 0
DWIDTH 17 0
BBX 15 22 1 0
BITMAP
0E08
1FF8
3FFC
3FF8
10F0
0000
60F0
FBF8
FFFC
FFFE
FFFE
FF7E
3E3E
3E3E
3E3E
3E3E
3E3E
3E3E
3E3E
3E3E
3E3E
3E3E
ENDCHAR
STARTCHAR ograve
ENCODING 242
SWIDTH 513 0
DWIDTH 16 0
BBX 14 22 1 0
BITMAP
0C00
0F00
1F80
0FC0
03C0
0080
0780
1FE0
3FF0
7FF8
FFF8
FCFC
F8FC
F87C
F87C
F87C
FCFC
FFFC
7FF8
7FF8
3FF0
1FC0
ENDCHAR
STARTCHAR oacute
ENCODING 243
SWIDTH 513 0
DWIDTH 16 0
BBX 14 22 1 0
BITMAP
0080
03C0
0FC0
1F80
0E00
0800
0780
1FE0
3FF0
7FF8
FFF8
FCFC
F8FC
F87C
F87C
F87C
FCFC
FFFC
7FF8
7FF8
3FF0
1FC0
ENDCHAR
STARTCHAR ocircumflex
ENCODING 244
SWIDTH 513 0
DWIDTH 16 0
BBX 14 22 1 0
BITMAP
0300
0FC0
3FE0
7FF0
38F0
2020
0780
1FE0
3FF0
7FF8
FFF8
FCFC
F8FC
F87C
F87C
F87C
FCFC
FFFC
7FF8
7FF8
3FF0
1FC0
ENDCHAR
STARTCHAR otilde
ENCODING 245
SWIDTH 513 0
DWIDTH 16 0
BBX 14 22 1 0
BITMAP
1C10
3FF0
7FF8
7FF0
21E0
0000
0780
1FE0
3FF0
7FF8
FFF8
FCFC
F8FC
F87C
F87C
F87C
FCFC
FFFC
7FF8
7FF8
3FF0
1FC0
ENDCHAR
STARTCHAR odieresis
ENCODING 246
SWIDTH 513 0
DWIDTH 16 0
BBX 14 22 1 0
BITMAP
3870
78F0
78F0
78F0
78F0
0000
0780
1FE0
3FF0
7FF8
FFF8
FCFC
F8FC
F87C
F87C
F87C
FCFC
FFFC
7FF8
7FF8
3FF0
1FC0
ENDCHAR
STARTCHAR divide
ENCODING 247
SWIDTH 611 0
DWIDTH 19 0
BBX 16 16 1 3
BITMAP
03E0
03E0
03E0
03E0
03E0
0000
7FFF
FFFF
FFFF
FFFF
0000
0000
03E0
03E0
03E0
03E0
ENDCHAR
STARTCHAR oslash
ENCODING 248
SWIDTH 513 0
DWIDTH 16 0
BBX 14 18 1 -1
BITMAP
0038
07F8
1FF0
3FF0
7FF8
F9F8
F1FC
F3FC
F3BC
F7BC
FF3C
FE3C
FE7C
7C78
7FF8
3FF0
7FC0
3000
ENDCHAR
STARTCHAR ugrave
ENCODING 249
SWIDTH 544 0
DWIDTH 17 0
BBX 15 22 1 0
BITMAP
0600
0780
0FE0
07E0
01E0
0040
3030
FCFC
FCFC
FCFC
FCFC
FCFC
FCFC
FCFC
FCFC
FCFC
FCFC
FFFE
FFFE
7FFE
7FFE
1F9E
ENDCHAR
STARTCHAR uacute
ENCODING 250
SWIDTH 544 0
DWIDTH 17 0
BBX 15 22 1 0
BITMAP
0040
01E0
07E0
0FC0
0700
0400
3030
FCFC
FCFC
FCFC
FCFC
FCFC
FCFC
FCFC
FCFC
FCFC
FCFC
FFFE
FFFE
7FFE
7FFE
1F9E
ENDCHAR
STARTCHAR ucircumflex
ENCODING 251
SWIDTH 544 0
DWIDTH 17 0
BBX 15 22 1 0
BITMAP
0300
0FC0
3FE0
3FF0
3870
2020
3030
FCFC
FCFC
FCFC
FCFC
FCFC
FCFC
FCFC
FCFC
FCFC
FCFC
FFFE
FFFE
7FFE
7FFE
1F9E
ENDCHAR
STARTCHAR udieresis
ENCODING 252
SWIDTH 544 0
DWIDTH 17 0
BBX 15 22 1 0
BITMAP
3C78
7CF8
7CF8
7CF8
7CF8
0000
3030
FCFC
FCFC
FCFC
FCFC
FCFC
FCFC
FCFC
FCFC
FCFC
FCFC
FFFE
FFFE
7FFE
7FFE
1F9E
ENDCHAR
STARTCHAR yacute
ENCODING 253
SWIDTH 537 0
DWIDTH 17 0
BBX 16 28 0 -6
BITMAP
0060
01E0
07F0
07E0
0700
0400
B81F
7C3F
7E3F
7E7E
3E7E
3F7E
3F7C
1FFC
1FFC
0FF8
0FF8
0FF8
07F0
07F0
07E0
07E0
07E0
0FC0
0FC0
0FC0
1F80
0F80
ENDCHAR
STARTCHAR thorn
ENCODING 254
SWIDTH 628 0
DWIDTH 19 0
BBX 14 28 3 -6
BITMAP
F800
F800
F800
F800
F800
F800
FF80
FFE0
FFF0
FFF8
FFF8
F9F8
F8FC
F8FC
F8FC
F8FC
F8F8
FFF8
FFF8
FFF0
FFE0
FF80
F800
F800
F800
F800
F800
F800
ENDCHAR
STARTCHAR ydieresis
ENCODING 255
SWIDTH 524 0
DWIDTH 16 0
BBX 16 28 0 -6
BITMAP
1E3C
3E3C
3E3C
3E3C
3E3C
0000
B81F
7C3F
7E3F
7E7E
3E7E
3F7E
3F7C
1FFC
1FFC
0FF8
0FF8
0FF8
07F0
07F0
07E0
07E0
07E0
0FC0
0FC0
0FC0
1F80
0F80
ENDCHAR
STARTCHAR dotlessi
ENCODING 305
SWIDTH 249 0
DWIDTH 8 0
BBX 6 15 1 0
BITMAP
FC
FC
FC
FC
FC
FC
FC
FC
FC
FC
FC
FC
FC
FC
FC
ENDCHAR
STARTCHAR Lslash
ENCODING 321
SWIDTH 469 0
DWIDTH 15 0
BBX 14 22 0 0
BITMAP
3F00
3F00
3F00
3F00
3F00
3F00
3F00
3F00
3F00
7FF0
FFF0
FFF0
FFF0
3F00
3F00
3F00
3F00
3FFC
3FFC
3FFC
3FFC
3FFC
ENDCHAR
STARTCHAR lslash
ENCODING 322
SWIDTH 381 0
DWIDTH 12 0
BBX 11 22 0 0
BITMAP
0F00
1F80
1F80
1F80
1F80
1F80
1F80
1F80
1F80
1F80
1F80
1F80
FFE0
FFE0
FFE0
1F80
1F80
1F80
1F80
1F80
1F80
1F80
ENDCHAR
STARTCHAR OE
ENCODING 338
SWIDTH 877 0
DWIDTH 27 0
BBX 24 22 1 0
BITMAP
03FFFF
0FFFFF
1FFFFF
3FFFFF
7FFFFF
7FFFFF
7F1FC0
FE0FC0
FE07C0
FC07FC
FC07FC
FC07FC
FC07FC
FE07C0
FE07C0
FF0FC0
7FFFC0
7FFFFF
3FFFFF
1FFFFF
0FFFFF
07FFFF
ENDCHAR
STARTCHAR oe
ENCODING 339
SWIDTH 774 0
DWIDTH 24 0
BBX 22 16 1 0
BITMAP
0783C0
1FEFF0
3FFFF8
7FFFFC
FFFFFC
FCFE7C
F8FC7C
F87FFC
F87FFC
F87FF8
FCFFC0
FFFE08
7FFFF8
7FFFFC
3FFFFC
1FE7F0
ENDCHAR
STARTCHAR Scaron
ENCODING 352
SWIDTH 536 0
DWIDTH 17 0
BBX 14 28 1 0
BITMAP
3870
3EF8
3FF0
0FE0
0380
0000
07F0
1FFC
3FFC
7FFC
7FF8
FFF8
FE08
FF00
7FC0
7FE0
7FF8
3FFC
1FFC
07FC
41FC
61FC
FFFC
FFFC
FFFC
FFF8
7FF0
3FE0
ENDCHAR
STARTCHAR scaron
ENCODING 353
SWIDTH 450 0
DWIDTH 14 0
BBX 12 22 1 0
BITMAP
6060
79E0
7FE0
3FC0
0F00
0600
0F80
3FF0
7FF0
7FE0
FE60
FE00
7F80
7FC0
3FE0
1FF0
47F0
E3F0
FFF0
FFF0
FFE0
7F80
ENDCHAR
STARTCHAR Ydieresis
ENCODING 376
SWIDTH 615 0
DWIDTH 19 0
BBX 20 28 0 0
BITMAP
0F1E00
0F1E00
0F1E00
0F1E00
0F1E00
000000
FE07F0
FF0FE0
7F0FE0
7F1FC0
3F9FC0
3F9F80
1FBF80
1FFF00
1FFF00
0FFE00
0FFE00
07FC00
07FC00
03F800
03F800
03F800
03F800
03F800
03F800
03F800
03F800
03F800
ENDCHAR
STARTCHAR Zcaron
ENCODING 381
SWIDTH 563 0
DWIDTH 17 0
BBX 16 28 1 0
BITMAP
1830
3E78
3FF8
0FF0
03C0
0100
7FFC
7FFE
7FFE
7FFE
7FFF
7FFE
01FE
01FC
03F8
07F8
07F0
0FE0
1FE0
1FC0
3F80
7F80
7FFE
FFFE
FFFE
7FFE
7FFE
7FFE
ENDCHAR
STARTCHAR zcaron
ENCODING 382
SWIDTH 454 0
DWIDTH 14 0
BBX 12 22 1 0
BITMAP
2060
79E0
7FE0
3FC0
0F80
0600
7FE0
FFE0
FFF0
FFF0
FFF0
03E0
07C0
0F80
1F00
3F00
7E00
FFF0
FFF0
FFF0
FFF0
7FF0
ENDCHAR
STARTCHAR florin
ENCODING 402
SWIDTH 422 0
DWIDTH 13 0
BBX 17 28 -3 -6
BITMAP
003F00
007F80
00FF80
00FF80
01FB00
01F000
07FE00
0FFE00
0FFE00
0FFE00
0FFC00
03F000
03F000
03F000
03E000
03E000
03E000
03E000
03E000
03E000
03E000
03E000
07E000
47C000
7FC000
FFC000
FF8000
7E0000
ENDCHAR
STARTCHAR circumflex
ENCODING 710
SWIDTH 480 0
DWIDTH 15 0
BBX 11 6 2 16
BITMAP
0600
1F00
7FC0
FBE0
71E0
4040
ENDCHAR
STARTCHAR caron
ENCODING 711
SWIDTH 483 0
DWIDTH 15 0
BBX 11 6 2 16
BITMAP
4040
F1E0
FFE0
7FC0
1F00
0400
ENDCHAR
STARTCHAR ring
ENCODING 730
SWIDTH 396 0
DWIDTH 12 0
BBX 6 6 3 16
BITMAP
38
44
84
44
68
10
ENDCHAR
STARTCHAR tilde
ENCODING 732
SWIDTH 440 0
DWIDTH 14 0
BBX 12 5 1 17
BITMAP
1820
7FE0
FFF0
FFE0
43C0
ENDCHAR
STARTCHAR endash
ENCODING 8211
SWIDTH 469 0
DWIDTH 15 0
BBX 12 3 1 6
BITMAP
7FF0
FFF0
7FF0
ENDCHAR
STARTCHAR emdash
ENCODING 8212
SWIDTH 789 0
DWIDTH 24 0
BBX 20 3 2 6
BITMAP
FFFFF0
FFFFF0
FFFFE0
ENDCHAR
STARTCHAR quoteleft
ENCODING 8216
SWIDTH 341 0
DWIDTH 11 0
BBX 5 8 3 14
BITMAP
E0
E0
F0
F0
F0
F8
F8
F8
ENDCHAR
STARTCHAR quoteright
ENCODING 8217
SWIDTH 314 0
DWIDTH 10 0
BBX 6 8 2 14
BITMAP
FC
F8
F8
F8
F8
F0
F0
F0
ENDCHAR
STARTCHAR quotesinglbase
ENCODING 8218
SWIDTH 368 0
DWIDTH 11 0
BBX 7 8 2 -3
BITMAP
3E
3E
3E
7E
7C
FC
F8
F8
ENDCHAR
STARTCHAR quotedblleft
ENCODING 8220
SWIDTH 564 0
DWIDTH 17 0
BBX 12 8 3 14
BITMAP
E1C0
E1E0
F1E0
F1E0
F1E0
F9F0
F9F0
F9F0
ENDCHAR
STARTCHAR quotedblright
ENCODING 8221
SWIDTH 530 0
DWIDTH 16 0
BBX 13 8 2 14
BITMAP
FDF8
F9F0
F9F0
F9F0
F9F0
F1E0
F1E0
F1E0
ENDCHAR
STARTCHAR quotedblbase
ENCODING 8222
SWIDTH 651 0
DWIDTH 20 0
BBX 15 8 2 -3
BITMAP
3E3E
3E3E
3E3E
7E3E
7C7E
FC7C
F8FC
F8F8
ENDCHAR
STARTCHAR dagger
ENCODING 8224
SWIDTH 475 0
DWIDTH 15 0
BBX 13 25 1 -2
BITMAP
0700
0700
0700
0700
0700
0700
0700
FFF8
FFF8
FFF8
0700
0700
0700
0700
0700
0700
0700
0700
0700
0700
0700
0700
0700
0700
0700
ENDCHAR
STARTCHAR daggerdbl
ENCODING 8225
SWIDTH 480 0
DWIDTH 15 0
BBX 13 25 1 -2
BITMAP
0700
0700
0700
0700
0700
0700
FFF0
FFF8
FFF8
0700
0700
0700
0700
0700
0700
0700
FFF8
FFF8
FFF8
0700
0700
0700
0700
0700
0700
ENDCHAR
STARTCHAR bullet
ENCODING 8226
SWIDTH 357 0
DWIDTH 11 0
BBX 5 6 3 5
BITMAP
70
F8
F8
F8
F8
70
ENDCHAR
STARTCHAR ellipsis
ENCODING 8230
SWIDTH 909 0
DWIDTH 28 0
BBX 24 6 2 0
BITMAP
FC3E1F
FC7E1F
FC7E1F
FC7E1F
FC7E1F
FC7E1F
ENDCHAR
STARTCHAR perthousand
ENCODING 8240
SWIDTH 1006 0
DWIDTH 31 0
BBX 29 22 1 0
BITMAP
1E006000
7F00F000
7F81F000
FF83E000
F383C000
E3C78000
E3CF8000
F39F0000
FF9E0000
7FBE0000
7F7C6180
1EFBFFE0
00F3FFF0
01F7FFF0
03E7BE70
03C71C78
07871C78
0F871E70
1F07FFF0
1E07FFF0
3C03FFE0
1C01F7C0
ENDCHAR
STARTCHAR guilsinglleft
ENCODING 8249
SWIDTH 497 0
DWIDTH 15 0
BBX 8 14 3 1
BITMAP
06
0F
1F
1E
3C
78
F0
F0
78
3C
3E
1F
0F
06
ENDCHAR
STARTCHAR guilsinglright
ENCODING 8250
SWIDTH 443 0
DWIDTH 14 0
BBX 8 14 3 1
BITMAP
60
F0
F8
78
3C
1E
0F
0F
1E
3C
7C
F8
F0
60
ENDCHAR
STARTCHAR fraction
ENCODING 8260
SWIDTH 313 0
DWIDTH 10 0
BBX 14 20 -3 1
BITMAP
0038
003C
0078
0078
00F0
01F0
01E0
03C0
03C0
0780
0780
0F00
1F00
1E00
3C00
3C00
7800
F800
7000
3000
ENDCHAR
STARTCHAR Euro
ENCODING 8364
SWIDTH 574 0
DWIDTH 18 0
BBX 15 22 2 0
BITMAP
03F0
0FFC
1FFC
3FFC
7FFC
7FFC
FE08
FC00
FFE0
FFF0
F800
F800
FFF0
FFE0
FC00
FE08
7FFC
7FFC
3FFE
1FFE
0FFE
07F8
ENDCHAR
STARTCHAR trademark
ENCODING 8482
SWIDTH 803 0
DWIDTH 25 0
BBX 21 12 2 10
BITMAP
FE78F0
FE78F8
FEFDF8
FEFDF8
38FDF8
38FFF8
38FFF8
38FFF8
38FFF8
38F778
38F778
38E238
ENDCHAR
STARTCHAR minus
ENCODING 8722
SWIDTH 603 0
DWIDTH 19 0
BBX 14 3 2 6
BITMAP
FFFC
FFFC
FFFC
ENDCHAR
STARTCHAR fi
ENCODING 64257
SWIDTH 648 0
DWIDTH 20 0
BBX 17 22 1 0
BITMAP
0F9F80
1FDF80
3FDF80
3FDF80
3E9F80
3C0000
FFFF00
FFFF00
FFFF00
FFFF00
FFFF00
3E1F00
3E1F00
3E1F00
3E1F00
3E1F00
3E1F00
3E1F00
3E1F00
3E1F00
3E1F00
3E1F00
ENDCHAR
STARTCHAR fl
ENCODING 64258
SWIDTH 647 0
DWIDTH 20 0
BBX 16 22 1 0
BITMAP
0F9F
1FDF
3FDF
3FDF
3E9F
3C1F
FFFF
FFFF
FFFF
FFFF
FFFF
3E1F
3E1F
3E1F
3E1F
3E1F
3E1F
3E1F
3E1F
3E1F
3E1F
3E1F
ENDCHAR
STARTCHAR .notdef
ENCODING -1
SWIDTH 199 0
DWIDTH 6 0
BBX 1 1 0 0
BITMAP
00
ENDCHAR
STARTCHAR .null
ENCODING -1
SWIDTH 0 0
DWIDTH 0 0
BBX 1 1 0 0
BITMAP
00
ENDCHAR
STARTCHAR nonmarkingreturn
ENCODING -1
SWIDTH 333 0
DWIDTH 10 0
BBX 1 1 0 0
BITMAP
00
ENDCHAR
ENDFONT
